<svg width="181" height="74" viewBox="0 0 181 74" fill="none" xmlns="http://www.w3.org/2000/svg">
<g clip-path="url(#clip0_68_1785)">
<path d="M79.8654 25.8001C79.2207 28.992 78.5128 32.1648 77.7606 35.3314C77.748 35.3504 77.729 35.363 77.7164 35.382C76.4397 37.4614 74.5688 39.0162 72.1544 39.5471C68.5265 40.3372 68.3179 37.8027 68.6023 35.0975C68.8361 32.8727 69.3924 30.6353 70.1192 28.4926C70.3151 27.9617 70.4921 27.4561 70.6564 26.9884C71.1558 25.5473 67.2434 23.885 66.7251 25.2566C66.4154 26.0782 66.0425 27.0769 65.6822 28.1577C64.8543 30.3572 63.9188 32.5188 62.6863 34.5224C61.5044 36.4375 58.578 40.7923 55.7654 39.6167C55.0765 39.3322 54.5456 38.7192 54.1284 37.9607C57.1939 35.0849 59.6462 31.3874 61.0746 28.0186C62.503 24.6561 63.2173 20.9587 63.6534 17.3433C64.0073 14.3727 64.7784 9.84728 62.7243 7.31909C60.9419 5.13221 57.7185 4.60129 55.7528 6.74393C52.7316 10.0559 51.379 14.8404 50.3425 19.0815C49.091 24.2011 47.6879 31.1599 49.8811 36.3237C48.6612 37.3982 47.3719 38.3463 46.0256 39.0984C43.3268 40.609 40.7986 40.6595 39.0352 38.6307C41.8857 35.4072 43.7376 30.9007 45.1534 27.0832C46.4996 23.4679 47.296 19.6566 47.5931 15.8138C47.9028 11.8572 48.2314 6.56063 46.7335 2.81892C45.9877 0.954381 43.6997 -0.429801 41.6645 0.13272C39.5345 0.720523 38.0618 3.56473 37.0505 5.30918C32.8221 12.6156 31.8488 21.5528 32.5314 29.8705C32.74 32.424 33.4605 35.0912 34.712 37.3539C33.1761 38.9214 31.3558 40.0275 29.1626 40.2361C26.7671 40.4636 29.9653 42.9792 31.3305 42.8464C33.5743 42.6315 35.4704 41.7656 37.0948 40.4826C38.972 42.2333 41.4243 43.2383 44.4834 42.916C47.2012 42.6252 49.7926 41.4117 52.1185 39.6672C52.7506 40.2993 53.4901 40.8681 54.3496 41.3611C58.8498 43.9272 62.383 41.9047 65.0691 38.4537C65.2588 38.8203 65.48 39.1616 65.7581 39.4713C67.5784 41.4496 69.9422 42.3345 72.3314 42.3408C67.9639 46.0572 64.987 51.1326 63.192 56.6819C61.694 61.3338 58.2241 72.4262 65.5938 73.9115C68.4064 74.4804 70.233 72.3377 71.3707 70.0181C73.4943 65.6759 74.8722 60.7713 76.3575 56.1826C79.3976 46.7841 81.8563 37.2149 83.8093 27.5383C84.1254 25.9834 80.1371 24.5044 79.878 25.8064L79.8654 25.8001ZM40.1033 8.58318C40.7859 7.29381 41.5065 5.99179 42.3597 4.80986C42.4293 4.71506 42.701 4.418 43.0107 4.08301C43.1371 4.89203 43.4026 5.89066 43.4468 6.32678C44.0915 13.077 43.3963 19.8715 40.8807 26.1983C39.92 28.6191 38.7002 31.6592 37.0442 34.2948C36.5323 32.1585 36.4375 29.9211 36.4248 27.7279C36.3869 21.1799 36.9937 14.4675 40.1033 8.58318ZM53.7998 22.76C54.4255 19.96 55.1207 17.1411 56.1952 14.4739C56.6882 13.254 57.2571 12.0594 57.9397 10.9344C58.2241 10.4604 58.6349 9.69558 59.0457 9.27843C60.1076 8.21027 59.7916 8.70959 59.8801 9.96104C60.2403 15.2323 59.248 21.0535 57.2697 25.9455C56.2521 28.461 54.7162 30.9956 52.8327 33.2583C52.7758 32.7526 52.7442 32.2849 52.7253 31.9057C52.5862 28.8276 53.1298 25.7559 53.7998 22.7663V22.76ZM67.2118 68.6908C66.5102 70.0307 65.5938 71.6172 65.1197 69.424C64.7721 67.7996 65.3978 65.5432 65.7012 63.9505C66.2637 60.9988 67.0854 58.0914 68.2357 55.3167C69.8664 51.3854 72.167 47.8902 75.2072 45.1028C74.967 45.9687 74.7331 46.8346 74.4803 47.7005C72.4578 54.6151 70.5616 62.2882 67.2055 68.6908H67.2118Z" fill="#FFDE3B"/>
<path d="M16.0035 3.45099C15.7254 3.45099 15.5358 3.50155 15.3967 3.59004C6.88304 6.50377 1.27679 14.2906 0.158068 23.1203C-0.960655 31.95 3.9377 42.9223 14.1073 43.0045C24.2454 43.0866 28.9288 31.2041 29.7947 22.7474C30.6859 14.0694 25.7939 3.66588 16.0035 3.45099ZM24.5487 27.0453C23.6007 30.1992 22.286 33.3657 20.2003 35.9445C17.7479 38.9846 13.1719 41.8668 9.34802 39.465C2.78738 35.3504 3.2867 25.0543 5.69479 18.7781C7.94488 12.9127 12.4261 8.18502 18.3926 6.13087C22.602 6.38368 24.928 12.1606 25.5474 15.6368C26.23 19.4291 25.6485 23.3857 24.5487 27.039V27.0453Z" fill="#FFDE3B"/>
<path d="M176.101 25.8001C175.456 28.992 174.748 32.1648 173.996 35.3314C173.983 35.3504 173.965 35.363 173.952 35.382C172.675 37.4614 170.804 39.0162 168.39 39.5471C164.762 40.3372 164.553 37.8027 164.838 35.0975C165.072 32.8727 165.628 30.6353 166.355 28.4926C166.551 27.9617 166.728 27.4561 166.892 26.9884C167.391 25.5473 163.479 23.885 162.961 25.2566C162.651 26.0782 162.278 27.0769 161.918 28.1577C161.09 30.3572 160.154 32.5188 158.922 34.5224C157.74 36.4375 154.814 40.7923 152.001 39.6167C151.312 39.3322 150.781 38.7192 150.364 37.9607C153.429 35.0849 155.882 31.3874 157.31 28.0186C158.739 24.6561 159.453 20.9587 159.889 17.3433C160.243 14.3727 161.014 9.84728 158.96 7.31909C157.177 5.13221 153.954 4.60129 151.988 6.74393C148.967 10.0559 147.615 14.8404 146.578 19.0815C145.327 24.2011 143.923 31.1599 146.117 36.3237C144.897 37.3982 143.607 38.3463 142.261 39.0984C139.562 40.609 137.034 40.6595 135.271 38.6307C138.121 35.4072 139.973 30.9007 141.389 27.0832C142.735 23.4679 143.531 19.6566 143.829 15.8138C144.138 11.8572 144.467 6.56063 142.969 2.81892C142.223 0.954381 139.935 -0.429801 137.9 0.13272C135.77 0.720523 134.297 3.56473 133.286 5.30918C129.058 12.6156 128.084 21.5528 128.767 29.8705C128.975 32.424 129.696 35.0912 130.947 37.3539C129.412 38.9214 127.591 40.0275 125.398 40.2361C123.003 40.4636 126.201 42.9792 127.566 42.8464C129.81 42.6315 131.706 41.7656 133.33 40.4826C135.207 42.2333 137.66 43.2383 140.719 42.916C143.437 42.6252 146.028 41.4117 148.354 39.6672C148.986 40.2993 149.726 40.8681 150.585 41.3611C155.085 43.9272 158.618 41.9047 161.305 38.4537C161.494 38.8203 161.715 39.1616 161.994 39.4713C163.814 41.4496 166.178 42.3345 168.567 42.3408C164.199 46.0572 161.222 51.1326 159.427 56.6819C157.93 61.3338 154.46 72.4262 161.829 73.9115C164.642 74.4804 166.468 72.3377 167.606 70.0181C169.73 65.6759 171.108 60.7713 172.593 56.1826C175.633 46.7841 178.092 37.2149 180.045 27.5383C180.361 25.9834 176.373 24.5044 176.113 25.8064L176.101 25.8001ZM136.339 8.58318C137.021 7.29381 137.742 5.99179 138.595 4.80986C138.665 4.71506 138.937 4.418 139.246 4.08301C139.373 4.89203 139.638 5.89066 139.682 6.32678C140.327 13.077 139.632 19.8715 137.116 26.1983C136.156 28.6191 134.936 31.6592 133.28 34.2948C132.768 32.1585 132.673 29.9211 132.66 27.7279C132.622 21.1799 133.229 14.4675 136.339 8.58318ZM150.035 22.76C150.661 19.96 151.356 17.1411 152.431 14.4739C152.924 13.254 153.493 12.0594 154.175 10.9344C154.46 10.4604 154.87 9.69558 155.281 9.27843C156.343 8.21027 156.027 8.70959 156.116 9.96104C156.476 15.2323 155.483 21.0535 153.505 25.9455C152.488 28.461 150.952 30.9956 149.068 33.2583C149.011 32.7526 148.98 32.2849 148.961 31.9057C148.822 28.8276 149.365 25.7559 150.035 22.7663V22.76ZM163.447 68.6908C162.746 70.0307 161.829 71.6172 161.355 69.424C161.008 67.7996 161.633 65.5432 161.937 63.9505C162.499 60.9988 163.321 58.0914 164.471 55.3167C166.102 51.3854 168.403 47.8902 171.443 45.1028C171.202 45.9687 170.969 46.8346 170.716 47.7005C168.693 54.6151 166.797 62.2882 163.441 68.6908H163.447Z" fill="#FFDE3B"/>
<path d="M112.239 3.45096C111.961 3.45096 111.771 3.50153 111.632 3.59001C103.125 6.49743 97.5121 14.2842 96.3934 23.1139C95.2747 31.9436 100.173 42.9159 110.343 42.9981C120.481 43.0803 125.164 31.1978 126.03 22.741C126.921 14.063 122.029 3.65954 112.239 3.44464V3.45096ZM120.784 27.0453C119.836 30.1992 118.521 33.3657 116.436 35.9445C113.983 38.9846 109.407 41.8667 105.583 39.465C99.0227 35.3503 99.5221 25.0543 101.93 18.7781C104.18 12.9127 108.661 8.18499 114.628 6.13084C118.837 6.38366 121.163 12.1606 121.783 15.6368C122.465 19.4291 121.884 23.3857 120.784 27.0389V27.0453Z" fill="#FFDE3B"/>
</g>
<defs>
<clipPath id="clip0_68_1785">
<rect width="180.051" height="74" fill="white"/>
</clipPath>
</defs>
</svg>
