<svg width="16" height="16" viewBox="0 0 16 16" fill="none" xmlns="http://www.w3.org/2000/svg">
<path d="M15.7072 14.3004L12.6386 11.2313C12.613 11.2057 12.5817 11.1829 12.5532 11.1601C13.4299 9.99288 13.948 8.54377 13.948 6.97509C13.948 3.12313 10.8254 0 6.974 0C3.12265 0 0 3.12313 0 6.97509C0 10.827 3.12265 13.9502 6.974 13.9502C8.54529 13.9502 9.99417 13.432 11.1584 12.5552C11.1812 12.5836 11.2011 12.6149 11.2296 12.6406L14.2981 15.7096C14.4917 15.9032 14.7479 16 15.0041 16C15.2603 16 15.5136 15.9032 15.71 15.7096C16.0971 15.3224 16.0971 14.6904 15.7072 14.3004ZM6.974 11.9573C4.2271 11.9573 1.99257 9.72242 1.99257 6.97509C1.99257 4.22776 4.2271 1.99288 6.974 1.99288C9.72091 1.99288 11.9554 4.22776 11.9554 6.97509C11.9554 9.72242 9.72091 11.9573 6.974 11.9573Z" fill="#637381"/>
</svg>
